<svg width="10" height="10" viewBox="0 0 10 10" fill="none" xmlns="http://www.w3.org/2000/svg">
<path d="M5 0.125C2.31172 0.125 0.125 2.31172 0.125 5C0.125 7.68828 2.31172 9.875 5 9.875C7.68828 9.875 9.875 7.68828 9.875 5C9.875 2.31172 7.68828 0.125 5 0.125ZM8.22383 2.37266C8.80391 3.08164 9.15547 3.98398 9.16367 4.96719C9.02656 4.93789 7.64961 4.65898 6.26445 4.83359C6.23516 4.76211 6.20586 4.69063 6.17539 4.61914C6.08867 4.41641 5.99609 4.21367 5.89883 4.01562C7.4375 3.38633 8.13594 2.49219 8.22383 2.37266ZM5 0.842187C6.0582 0.842187 7.025 1.23945 7.75977 1.89102C7.68477 1.99766 7.05781 2.84023 5.57773 3.3957C4.8957 2.1418 4.13984 1.11289 4.02383 0.958203C4.34375 0.880859 4.6707 0.842187 5 0.842187ZM3.2293 1.23828C3.33945 1.38828 4.08359 2.4207 4.77266 3.64648C2.825 4.16328 1.10938 4.15625 0.923047 4.15391C1.19375 2.86133 2.06445 1.78789 3.2293 1.23828ZM0.836328 5.00586C0.836328 4.96367 0.8375 4.92031 0.838672 4.87813C1.02031 4.88164 3.03828 4.90742 5.11836 4.28516C5.23789 4.51836 5.35156 4.75508 5.45586 4.9918C5.40078 5.00703 5.3457 5.02344 5.2918 5.04102C3.14375 5.73711 2.00117 7.62969 1.90625 7.79023C1.2418 7.05195 0.836328 6.07578 0.836328 5.00586ZM5 9.16953C4.03672 9.16953 3.14961 8.84141 2.44414 8.29062C2.51914 8.13711 3.36172 6.50938 5.71016 5.69023L5.73711 5.68086C6.32188 7.19961 6.56328 8.47344 6.62539 8.83906C6.11171 9.05862 5.55863 9.17107 5 9.16953ZM7.32617 8.4582C7.28398 8.20508 7.0625 6.98633 6.51758 5.48984C7.82305 5.28125 8.96914 5.62344 9.11094 5.66797C8.92578 6.82578 8.26133 7.82656 7.32617 8.4582Z" fill="#AF48FF"/>
</svg>
