<svg width="10" height="9" viewBox="0 0 10 9" fill="none" xmlns="http://www.w3.org/2000/svg">
<path d="M5.72657 6.29766C5.70895 6.28022 5.68515 6.27043 5.66036 6.27043C5.63556 6.27043 5.61177 6.28022 5.59415 6.29766L4.23243 7.65938C3.60196 8.28985 2.5379 8.35665 1.8418 7.65938C1.14454 6.96212 1.21133 5.89923 1.8418 5.26876L3.20352 3.90704C3.23985 3.87071 3.23985 3.81094 3.20352 3.77462L2.73712 3.30821C2.7195 3.29076 2.6957 3.28098 2.6709 3.28098C2.64611 3.28098 2.62231 3.29076 2.60469 3.30821L1.24297 4.66993C0.251569 5.66133 0.251569 7.26563 1.24297 8.25587C2.23438 9.2461 3.83868 9.24727 4.82891 8.25587L6.19063 6.89415C6.22696 6.85782 6.22696 6.79805 6.19063 6.76173L5.72657 6.29766ZM8.75704 0.742975C7.76563 -0.248431 6.16133 -0.248431 5.1711 0.742975L3.80821 2.10469C3.79076 2.12231 3.78097 2.14611 3.78097 2.1709C3.78097 2.1957 3.79076 2.2195 3.80821 2.23712L4.27344 2.70235C4.30977 2.73868 4.36954 2.73868 4.40587 2.70235L5.76758 1.34063C6.39805 0.710162 7.46212 0.643366 8.15821 1.34063C8.85547 2.0379 8.78868 3.10079 8.15821 3.73126L6.79649 5.09298C6.77904 5.1106 6.76926 5.13439 6.76926 5.15919C6.76926 5.18398 6.77904 5.20778 6.79649 5.2254L7.2629 5.6918C7.29922 5.72813 7.35899 5.72813 7.39532 5.6918L8.75704 4.33008C9.74727 3.33868 9.74727 1.73438 8.75704 0.742975ZM6.14962 2.8629C6.132 2.84545 6.1082 2.83566 6.08341 2.83566C6.05861 2.83566 6.03481 2.84545 6.01719 2.8629L3.3629 5.51602C3.34545 5.53364 3.33566 5.55744 3.33566 5.58223C3.33566 5.60703 3.34545 5.63082 3.3629 5.64844L3.82696 6.11251C3.86329 6.14883 3.92305 6.14883 3.95938 6.11251L6.61251 3.45938C6.64883 3.42305 6.64883 3.36329 6.61251 3.32696L6.14962 2.8629Z" fill="#AF48FF"/>
</svg>
